
<svg xmlns="http://www.w3.org/2000/svg" width="32" height="32" viewBox="0 0 32 32" fill="none">
  <path d="M16 0C7.163 0 0 7.163 0 16C0 24.837 7.163 32 16 32C24.837 32 32 24.837 32 16C32 7.163 24.837 0 16 0Z" fill="#1652F0"/>
  <path d="M16 6.66675C10.84 6.66675 6.66675 10.84 6.66675 16C6.66675 21.16 10.84 25.3334 16 25.3334C21.16 25.3334 25.3334 21.16 25.3334 16C25.3334 10.84 21.16 6.66675 16 6.66675ZM13.3334 19.5467V12.4534C13.3334 12.0467 13.7867 11.8 14.1334 12.0134L20.1334 15.56C20.4534 15.7467 20.4534 16.2267 20.1334 16.4267L14.1334 19.9734C13.7867 20.1734 13.3334 19.9467 13.3334 19.5467Z" fill="white"/>
</svg>
