
<svg xmlns="http://www.w3.org/2000/svg" width="32" height="32" viewBox="0 0 32 32" fill="none">
  <path d="M27.5821 4.54211L17.6351 11.159L19.4134 7.48456L27.5821 4.54211Z" fill="#E2761B"/>
  <path d="M4.41016 4.54211L14.2827 11.2082L12.5867 7.48456L4.41016 4.54211Z" fill="#E4761B"/>
  <path d="M24.0464 20.9483L21.4039 25.0766L26.9881 26.6604L28.6211 21.0467L24.0464 20.9483Z" fill="#E4761B"/>
  <path d="M3.38672 21.0467L5.01188 26.6604L10.5961 25.0766L7.95359 20.9483L3.38672 21.0467Z" fill="#E4761B"/>
  <path d="M10.3028 14.2448L8.77344 16.7889L14.3085 17.0349L14.1117 11.0614L10.3028 14.2448Z" fill="#E4761B"/>
  <path d="M21.6891 14.2448L17.8311 10.9631L17.6344 17.0349L23.1694 16.7889L21.6891 14.2448Z" fill="#E4761B"/>
  <path d="M10.5962 25.0766L13.9895 23.3944L11.0387 21.0959L10.5962 25.0766Z" fill="#E4761B"/>
  <path d="M18.0023 23.3944L21.4038 25.0766L20.9531 21.0959L18.0023 23.3944Z" fill="#E4761B"/>
  <path d="M21.4038 25.0766L18.0023 23.3944L18.2646 25.7152L18.2319 26.6112L21.4038 25.0766Z" fill="#D7C1B3"/>
  <path d="M10.5962 25.0766L13.7682 26.6112L13.7436 25.7152L13.9895 23.3944L10.5962 25.0766Z" fill="#D7C1B3"/>
  <path d="M13.8256 19.5122L11.0387 18.6654L13.0105 17.7202L13.8256 19.5122Z" fill="#233447"/>
  <path d="M18.1664 19.5122L18.9816 17.7202L20.9616 18.6654L18.1664 19.5122Z" fill="#233447"/>
  <path d="M10.5961 25.0766L11.0551 20.9483L7.95361 21.0467L10.5961 25.0766Z" fill="#CD6116"/>
  <path d="M20.9451 20.9483L21.4041 25.0766L24.0466 21.0467L20.9451 20.9483Z" fill="#CD6116"/>
  <path d="M23.1694 16.7889L17.6345 17.0349L18.1753 19.5122L19.0068 17.7202L20.9868 18.6654L23.1694 16.7889Z" fill="#CD6116"/>
  <path d="M11.0387 18.6654L13.0105 17.7202L13.8256 19.5122L14.3082 17.0349L8.77344 16.7889L11.0387 18.6654Z" fill="#CD6116"/>
  <path d="M8.77344 16.7889L11.0387 21.0959L11.0387 18.6654L8.77344 16.7889Z" fill="#E4751F"/>
  <path d="M20.9869 18.6654L20.9613 21.0959L23.1694 16.7889L20.9869 18.6654Z" fill="#E4751F"/>
  <path d="M14.3083 17.0349L13.8257 19.5122L14.428 23.1974L14.6574 18.5179L14.3083 17.0349Z" fill="#E4751F"/>
  <path d="M17.6345 17.0349L17.2935 18.5097L17.4738 23.1974L18.1753 19.5122L17.6345 17.0349Z" fill="#E4751F"/>
  <path d="M18.1753 19.5122L17.4738 23.1974L18.0025 23.3944L20.9532 21.0959L20.9869 18.6654L18.1753 19.5122Z" fill="#F6851B"/>
  <path d="M11.0387 18.6654L11.0387 21.0959L13.9895 23.3944L14.5181 23.1974L13.8257 19.5122L11.0387 18.6654Z" fill="#F6851B"/>
  <path d="M18.232 26.6112L18.2646 25.7152L18.0187 25.5019H13.9733L13.7437 25.7152L13.7682 26.6112L10.5962 25.0766L11.7869 26.0218L13.9406 27.4581H18.0512L20.2131 26.0218L21.4037 25.0766L18.232 26.6112Z" fill="#C0AD9E"/>
  <path d="M18.0024 23.3943L17.4737 23.1974H14.5179L13.9893 23.3943L13.7434 25.7152L13.973 25.5018H18.0185L18.2644 25.7152L18.0024 23.3943Z" fill="#161616"/>
  <path d="M27.9968 11.4543L28.8201 7.37067L27.582 4.54211L18.0025 10.8647L21.6892 14.2449L26.8487 15.9271L27.9641 14.5891L27.4642 14.2285L28.236 13.4983L27.6062 13.021L28.378 12.3892L27.9968 11.4543Z" fill="#763D16"/>
  <path d="M3.18018 7.37067L4.00341 11.4543L3.61398 12.3892L4.38578 13.021L3.76386 13.4983L4.53566 14.2285L4.03576 14.5891L5.14286 15.9271L10.3024 14.2449L13.9891 10.8647L4.40954 4.54211L3.18018 7.37067Z" fill="#763D16"/>
  <path d="M26.8487 15.927L21.6892 14.2448L23.1695 16.7889L20.9614 21.0959L24.0465 21.0467H28.6215L26.8487 15.927Z" fill="#F6851B"/>
  <path d="M10.3029 14.2448L5.14335 15.927L3.38672 21.0467H7.95358L11.0387 21.0959L8.77342 16.7889L10.3029 14.2448Z" fill="#F6851B"/>
  <path d="M17.6345 17.0349L18.0026 10.8647L19.422 7.48456H12.5866L13.9892 10.8647L14.3081 17.0349L14.5097 18.5179L14.518 23.1974H17.4738L17.4902 18.5179L17.6345 17.0349Z" fill="#F6851B"/>
</svg>
