
<svg xmlns="http://www.w3.org/2000/svg" width="32" height="32" viewBox="0 0 32 32" fill="none">
  <path d="M16 0C7.164 0 0 7.164 0 16C0 24.836 7.164 32 16 32C24.836 32 32 24.836 32 16C32 7.164 24.836 0 16 0Z" fill="#3396FF"/>
  <path d="M10.85 12.613C13.875 9.613 18.624 9.613 21.649 12.613L22.027 12.989C22.169 13.13 22.169 13.355 22.027 13.496L20.702 14.812C20.631 14.883 20.518 14.883 20.447 14.812L19.905 14.274C17.833 12.222 14.666 12.222 12.594 14.274L12.01 14.853C11.939 14.924 11.826 14.924 11.756 14.853L10.43 13.537C10.288 13.396 10.288 13.172 10.43 13.031L10.85 12.613ZM24.466 15.414L25.644 16.581C25.786 16.722 25.786 16.946 25.644 17.087L20.316 22.374C20.174 22.515 19.947 22.515 19.806 22.374L16.109 18.706C16.074 18.67 16.017 18.67 15.981 18.706L12.285 22.374C12.143 22.515 11.917 22.515 11.775 22.374C11.775 22.374 11.775 22.374 11.775 22.374L6.448 17.086C6.306 16.945 6.306 16.721 6.448 16.58L7.626 15.413C7.767 15.272 7.994 15.272 8.135 15.413L11.833 19.083C11.868 19.118 11.925 19.118 11.961 19.083L15.657 15.413C15.799 15.272 16.025 15.272 16.167 15.413C16.167 15.413 16.167 15.413 16.167 15.413L19.865 19.083C19.9 19.118 19.957 19.118 19.993 19.083L23.69 15.414C23.831 15.272 24.058 15.272 24.199 15.414L24.466 15.414Z" fill="white"/>
</svg>
